<svg xmlns="http://www.w3.org/2000/svg" viewBox="0 0 12 12" shape-rendering="crispEdges"><defs><linearGradient id="mascot-gradient" gradientUnits="userSpaceOnUse" x1="2" y1="1" x2="10" y2="9"><stop offset="0" stop-color="#F77B6E"/><stop offset="0.5" stop-color="#E4483F"/><stop offset="1" stop-color="#CC322B"/></linearGradient></defs><rect x="5" y="0" width="2" height="1" fill="#A32320"/><rect x="5" y="1" width="2" height="1" fill="url(#mascot-gradient)"/><rect x="2" y="2" width="8" height="1" fill="url(#mascot-gradient)"/><rect x="1" y="3" width="10" height="1" fill="url(#mascot-gradient)"/><rect x="1" y="4" width="10" height="1" fill="url(#mascot-gradient)"/><rect x="1" y="5" width="2" height="1" fill="url(#mascot-gradient)"/><rect x="3" y="5" width="2" height="1" fill="#141413"/><rect x="5" y="5" width="2" height="1" fill="url(#mascot-gradient)"/><rect x="7" y="5" width="2" height="1" fill="#141413"/><rect x="9" y="5" width="2" height="1" fill="url(#mascot-gradient)"/><rect x="1" y="6" width="2" height="1" fill="url(#mascot-gradient)"/><rect x="3" y="6" width="2" height="1" fill="#141413"/><rect x="5" y="6" width="2" height="1" fill="url(#mascot-gradient)"/><rect x="7" y="6" width="2" height="1" fill="#141413"/><rect x="9" y="6" width="2" height="1" fill="url(#mascot-gradient)"/><rect x="0" y="7" width="12" height="1" fill="url(#mascot-gradient)"/><rect x="1" y="8" width="10" height="1" fill="url(#mascot-gradient)"/><rect x="2" y="9" width="8" height="1" fill="#A32320"/><rect x="3" y="10" width="2" height="1" fill="#A32320"/><rect x="7" y="10" width="2" height="1" fill="#A32320"/><rect x="3" y="11" width="2" height="1" fill="#A32320"/><rect x="7" y="11" width="2" height="1" fill="#A32320"/></svg>
